# xmcd CD database file
# Copyright (C) 1993-1998 Ti Kan
#
# Track frame offsets:
# 150
# 23051
# 44937
# 64926
# 81638
# 99837
# 119904
# 136401
# 153184
# 174270
# 197403
# 215428
# 238148
# 263365
# 284075
# 300063
#
# Disc length: 4225 seconds
# Revision: 0
# Processed by: cddbd v1.4b41PL1 Copyright (c) Steve Scherf et al.
# Submitted via: CDSpectrumPro v3.2.328
#
DISCID=e1107f10
DTITLE=Various Artist - Super Power Hits
DYEAR=1900
DGENRE=
TTITLE0=Bon Jovi - This Ain't A Love Song
TTITLE1=Bryan Adams - Have You Ever Really Loved A Woman
TTITLE2=Firehouse - I live my life for you
TTITLE3=Diana King - Shy Guy
TTITLE4=Take That - Back For Good
TTITLE5=Ning Baizura - In Another Life
TTITLE6=Robertson Brothers - Can't Cry Hard Enough
TTITLE7=Sheryl Crow - Can't Cry Anymore
TTITLE8=Rod Stewart - You're the Star
TTITLE9=Fun Factory - Love of My Life
TTITLE10=Montell Jordan - This Is How We Do It
TTITLE11=Martin Page - In the House of Stone and Light
TTITLE12=Karyn White - Can I Stay With You
TTITLE13=Deep Forest - Bohemf
TTITLE14=Gillete - Mr. Personality
TTITLE15=Boyzone - Key To My Life
EXTD=
EXTT0=
EXTT1=
EXTT2=
EXTT3=
EXTT4=
EXTT5=
EXTT6=
EXTT7=
EXTT8=
EXTT9=
EXTT10=
EXTT11=
EXTT12=
EXTT13=
EXTT14=
EXTT15=
PLAYORDER=
